<?xml version="1.0" encoding="UTF-8" standalone="no"?>
<svg viewBox="0 0 64 64" height="64" width="64" version="1.1" xmlns="http://www.w3.org/2000/svg">
   <g transform="matrix(2.1859906,0,0,2.3378995,-29.328438,-35.19581)">
      <path
         d="m 13.416543,30.402115 0,-3.320313 2.148438,-2.148437 3.515625,3.515625 3.515625,-3.515625 3.515625,3.515625 3.515625,-3.515625 3.515625,3.515625 1.367187,-1.367188 2.714844,0 -4.550781,-4.550781 2.34375,-2.34375 7.675781,7.675781 0,1.757813 -7.675781,7.675781 -2.34375,-2.34375 4.550781,-4.550781 -1.933594,0 -2.148437,2.148437 -3.515625,-3.515625 -3.515625,3.515625 -3.515625,-3.515625 -3.515625,3.515625 -3.515625,-3.515625 -1.367188,1.367188 -0.78125,0 z" />
   </g>
</svg>
